# xmcd
#
# Track frame offsets:
#	150
#	16606
#	31867
#	49375
#	64831
#	82676
#	94453
#	112769
#	128937
#	146494
#	163412
#	176393
#	193606
#	211202
#	225478
#	228530
#
# Disc length: 3110 seconds
#
# Revision: 1
# Processed by: cddbd v1.5.2PL0 Copyright (c) Steve Scherf et al.
# Submitted via: audiograbber 1.83.01
#
DISCID=cd0c2410
DTITLE=Various Artist - CDX Volume 540 (February 27, 2012)
DYEAR=2012
DGENRE=Country
TTITLE0=Luke Bryan - Drunk On You
TTITLE1=Easton Corbin - Lovin' You Is Fun 
TTITLE2=Hunter Hayes - Wanted
TTITLE3=Aaron Lewis - Endless Summer 
TTITLE4=David Frizzell - Say Hello To Heaven 
TTITLE5=Steve Richard - Toothbrush
TTITLE6=Tim Culpepper - Ghost 
TTITLE7=Beth Cayhall - Boys Eat Your Hearts Out
TTITLE8=David Lee Bryant - My Sweet Lil' Southern Belle 
TTITLE9=Justin Haigh - People Like Me
TTITLE10=Paul David Benton - She's Something Else 
TTITLE11=Jefferson Grizzard - Since You Came Around
TTITLE12=Daniel Smith - Sometimes Love
TTITLE13=Leah Seawright - Til Your Boots Are Dirty
TTITLE14=David Frizzell - :30 MADD PSA
TTITLE15=David Frizzell - :60 MADD PSA 
EXTD=
EXTT0=
EXTT1=
EXTT2=
EXTT3=
EXTT4=
EXTT5=
EXTT6=
EXTT7=
EXTT8=
EXTT9=
EXTT10=
EXTT11=
EXTT12=
EXTT13=
EXTT14=
EXTT15=
PLAYORDER=
